<svg xmlns="http://www.w3.org/2000/svg" viewBox="0 0 491.0000 100" role="img" aria-label="рцмаркет" fill="#111111" color="#111111"><title>рцмаркет</title><g transform="translate(10 7)"><g transform="translate(0 0)"><path d="M0 86V0 M0 9Q9 0 24 0Q44 0 44 32Q44 64 24 64Q8 64 0 55" fill="none" stroke="currentColor" stroke-width="9" stroke-linecap="butt" stroke-linejoin="miter"/><path d="M-9 0H9L0 10Z"/></g><g transform="translate(59 0)"><path d="M0 0V64H42V0 M42 64H49V81" fill="none" stroke="currentColor" stroke-width="9" stroke-linecap="butt" stroke-linejoin="miter"/><path d="M-9 0H9L0 10Z"/></g><g transform="translate(123 0)"><path d="M0 64V0L27 36L54 0V64" fill="none" stroke="currentColor" stroke-width="9" stroke-linecap="butt" stroke-linejoin="miter"/><path d="M-9 0H9L0 10Z"/><path d="M-9 64H9L0 54Z"/></g><g transform="translate(192 0)"><path d="M42 64V0 M42 10Q32 0 21 0Q0 0 0 32Q0 64 21 64Q33 64 42 54" fill="none" stroke="currentColor" stroke-width="9" stroke-linecap="butt" stroke-linejoin="miter"/></g><g transform="translate(249 0)"><path d="M0 86V0 M0 9Q9 0 24 0Q44 0 44 32Q44 64 24 64Q8 64 0 55" fill="none" stroke="currentColor" stroke-width="9" stroke-linecap="butt" stroke-linejoin="miter"/><path d="M-9 0H9L0 10Z"/></g><g transform="translate(308 0)"><path d="M0 0V64 M41 0L0 32L43 64" fill="none" stroke="currentColor" stroke-width="9" stroke-linecap="butt" stroke-linejoin="miter"/><path d="M-9 0H9L0 10Z"/><path d="M-9 64H9L0 54Z"/></g><g transform="translate(366 0)"><path d="M0 31H44Q44 0 23 0Q0 0 0 32Q0 64 23 64Q37 64 44 56" fill="none" stroke="currentColor" stroke-width="9" stroke-linecap="butt" stroke-linejoin="miter"/></g><g transform="translate(425 0)"><path d="M0 0H46 M23 0V64" fill="none" stroke="currentColor" stroke-width="9" stroke-linecap="butt" stroke-linejoin="miter"/><path d="M15 64H31L23 57Z"/></g></g></svg>
